<?xml version="1.0" standalone="no"?>
<!DOCTYPE svg PUBLIC "-//W3C//DTD SVG 1.1//EN" "http://www.w3.org/Graphics/SVG/1.1/DTD/svg11.dtd" >
<svg>
<metadata>
Created by FontForge 20120731 at Wed Oct 22 09:00:29 2014
 By Orthosie Webhosting
Copyright(c) 1993-2011 Brother Industries,Ltd.
</metadata>
<defs>
<font id="LetterGothicRegular" horiz-adv-x="1028" >
  <font-face 
    font-family="LetterGothicRegular"
    font-weight="400"
    font-stretch="normal"
    units-per-em="2048"
    panose-1="2 11 4 9 2 2 2 3 2 4"
    ascent="1638"
    descent="-410"
    x-height="954"
    cap-height="1475"
    bbox="-66 -545 1069 1987"
    underline-thickness="104"
    underline-position="-356"
    unicode-range="U+0020-F002"
  />
<missing-glyph 
d="M866 1364h-704v-1282h704v1282zM80 1446h868v-1446h-868v1446z" />
    <glyph glyph-name=".notdef" 
d="M866 1364h-704v-1282h704v1282zM80 1446h868v-1446h-868v1446z" />
    <glyph glyph-name="glyph1" 
 />
    <glyph glyph-name="glyph2" 
 />
    <glyph glyph-name="space" unicode=" " 
 />
    <glyph glyph-name="space" unicode="&#xa0;" 
 />
    <glyph glyph-name="exclam" unicode="!" 
d="M416 1475h197l-39 -1082h-119zM406 205h217v-205h-217v205z" />
    <glyph glyph-name="quotedbl" unicode="&#x22;" 
d="M565 1475h184l-45 -521h-94zM279 1475h184l-45 -521h-94z" />
    <glyph glyph-name="numbersign" unicode="#" 
d="M582 590l55 313h-191l-55 -313h191zM150 -101l100 572h-182l20 119h182l56 313h-183l21 119h182l96 549h121l-96 -549h190l97 549h120l-96 -549h183l-21 -119h-182l-56 -313h183l-21 -119h-182l-100 -572h-121l100 572h-190l-101 -572h-120z" />
    <glyph glyph-name="dollar" unicode="$" 
d="M641 635l-67 43v-582q116 16 182.5 82.5t66.5 167.5q0 173 -182 289zM455 1376q-84 -11 -142.5 -74t-58.5 -143q0 -72 40.5 -129t137.5 -121l23 -14v481zM455 1622h119v-127q104 -17 176.5 -61.5t144.5 -135.5l-96 -71q-99 125 -225 147v-555l135 -88q233 -151 233 -385
q0 -155 -99.5 -254t-268.5 -115v-133h-119v135q-213 33 -336 207l96 70q52 -69 106 -104.5t134 -53.5v655l-96 62q-224 142 -224 336q0 141 88 235t232 111v125z" />
    <glyph glyph-name="percent" unicode="%" 
d="M733 406q-70 0 -117 -46.5t-47 -117.5t46.5 -118t117.5 -47t117.5 47t46.5 118t-46.5 117.5t-117.5 46.5zM47 22l776 1348q-83 -34 -182 -34q-60 0 -107 12q27 -49 27 -115q0 -111 -77.5 -188.5t-188.5 -77.5t-188.5 77.5t-77.5 188.5t77.5 188.5t188.5 77.5
q69 0 133 -34q109 -47 213 -47q62 0 133.5 22t122.5 59l90 -49l-850 -1475zM467 242q0 111 77.5 188.5t188.5 77.5t188.5 -77.5t77.5 -188.5q0 -112 -77.5 -189.5t-188.5 -77.5t-188.5 77.5t-77.5 189.5zM295 1397q-70 0 -117 -46.5t-47 -117.5q0 -70 47 -117t117 -47
q71 0 117.5 47t46.5 117q0 71 -46.5 117.5t-117.5 46.5z" />
    <glyph glyph-name="ampersand" unicode="&#x26;" 
d="M406 954l84 101q67 82 67 184q0 66 -34 103.5t-95 37.5q-51 0 -83.5 -34t-32.5 -87q0 -86 51 -204zM394 94q124 0 212 111l-231 526l-92 -113q-113 -137 -113 -270q0 -117 60.5 -185.5t163.5 -68.5zM263 991q-70 158 -70 262q0 107 68 176.5t174 69.5q109 0 175 -71.5
t66 -188.5q0 -146 -90 -256l-127 -152l219 -497q71 181 68 426h231v-119h-108q-26 -298 -127 -459l14 -29q28 -59 78 -59q61 0 104 49l51 -102q-72 -66 -159 -66q-64 0 -103.5 25.5t-64.5 81.5q-110 -107 -268 -107q-160 0 -251.5 99t-91.5 274q0 182 129 336l142 170z" />
    <glyph glyph-name="quotesingle" unicode="'" 
d="M422 1475h184l-45 -521h-94z" />
    <glyph glyph-name="parenleft" unicode="(" 
d="M703 -256q-217 168 -334 404.5t-117 508.5q0 273 117 509.5t334 404.5l74 -84q-197 -159 -301.5 -372t-104.5 -458t104 -457.5t302 -371.5z" />
    <glyph glyph-name="parenright" unicode=")" 
d="M776 657q0 -272 -117 -508.5t-334 -404.5l-74 84q198 159 302 371.5t104 457.5t-104.5 458t-301.5 372l74 84q217 -168 334 -404.5t117 -509.5z" />
    <glyph glyph-name="asterisk" unicode="*" 
d="M195 708l251 283l54 -39l-193 -326zM111 1233l348 -151l-21 -64l-370 82zM721 626l-193 326l54 39l252 -283zM961 1100l-371 -82l-21 64l349 151zM584 1475l-37 -377h-66l-37 377h140z" />
    <glyph glyph-name="plus" unicode="+" 
d="M455 923h119v-386h387v-119h-387v-387h-119v387h-387v119h387v386z" />
    <glyph glyph-name="comma" unicode="," 
d="M401 225h225v-225q0 -61 -27 -117.5t-94 -128.5l-61 47q100 93 100 199h-143v225z" />
    <glyph glyph-name="glyph16" unicode="-" 
d="M176 537h676v-119h-676v119z" />
    <glyph glyph-name="period" unicode="." 
d="M401 0v225h225v-225h-225z" />
    <glyph glyph-name="slash" unicode="/" 
d="M743 1499h127l-583 -1524h-127z" />
    <glyph glyph-name="zero" unicode="0" 
d="M514 94q81 0 132 32.5t82 103.5q60 138 60 507q0 368 -61 508q-31 70 -82 102.5t-131 32.5t-131 -32.5t-82 -102.5q-61 -140 -61 -508q0 -369 61 -507q30 -71 81 -103.5t132 -32.5zM121 737q0 407 91.5 584.5t301.5 177.5t301.5 -177.5t91.5 -584.5t-91.5 -584.5
t-301.5 -177.5t-301.5 177.5t-91.5 584.5z" />
    <glyph glyph-name="one" unicode="1" 
d="M168 1311l336 164h139v-1475h-119v1348l-356 -168v131z" />
    <glyph glyph-name="two" unicode="2" 
d="M723 729l-240 -213q-217 -193 -217 -397h623v-119h-762q0 208 58.5 336t217.5 268l230 203q90 79 127 145.5t37 145.5q0 122 -81 202t-204 80q-120 0 -200.5 -84.5t-80.5 -210.5h-118q0 180 113 297t286 117q176 0 290 -112.5t114 -288.5q0 -102 -46 -190.5t-147 -178.5z
" />
    <glyph glyph-name="three" unicode="3" 
d="M137 1292q83 109 175 158t210 49q158 0 262.5 -99t104.5 -243q0 -251 -240 -351q283 -97 283 -403q0 -187 -119 -307.5t-303 -120.5q-129 0 -236.5 61.5t-175.5 174.5l101 67q108 -184 307 -184q139 0 223 86.5t84 228.5q0 153 -101.5 242t-289.5 98v119q348 22 348 281
q0 101 -71 166t-177 65q-165 0 -282 -158z" />
    <glyph glyph-name="four" unicode="4" 
d="M635 1381l-438 -892h438v892zM635 0v370h-578v107l492 998h205v-986h219v-119h-219v-370h-119z" />
    <glyph glyph-name="five" unicode="5" 
d="M258 1356v-530q122 96 256 96q186 0 296 -128.5t110 -347.5q0 -220 -130 -351q-120 -120 -298 -120q-122 0 -226.5 67t-157.5 181l95 64q43 -91 120 -142t169 -51q136 0 222.5 97.5t86.5 250.5q0 167 -78 264t-209 97q-166 0 -281 -160h-94v832h709v-119h-590z" />
    <glyph glyph-name="six" unicode="6" 
d="M524 815q-93 0 -175.5 -71.5t-123.5 -188.5q36 -461 291 -461q134 0 213.5 100t79.5 271q0 164 -76.5 257t-208.5 93zM838 1317q-106 63 -217 63q-180 0 -287 -164.5t-113 -453.5q108 172 318 172q178 0 283.5 -126.5t105.5 -342.5q0 -226 -110.5 -358t-301.5 -132
q-416 0 -416 701q0 406 133 614.5t392 208.5q147 0 262 -69z" />
    <glyph glyph-name="seven" unicode="7" 
d="M309 0l463 1356h-645v119h774v-107l-467 -1368h-125z" />
    <glyph glyph-name="eight" unicode="8" 
d="M199 414q0 -147 85.5 -233.5t229.5 -86.5t229.5 86.5t85.5 233.5q0 142 -87.5 228.5t-227.5 86.5t-227.5 -86.5t-87.5 -228.5zM248 1118q0 -120 74 -195t192 -75t192 75t74 195q0 118 -73.5 190t-192.5 72t-192.5 -72t-73.5 -190zM129 1118q0 170 105.5 275.5
t279.5 105.5t279.5 -105.5t105.5 -275.5q0 -212 -180 -327q109 -47 169 -145t60 -232q0 -202 -117.5 -320.5t-316.5 -118.5q-203 0 -318.5 116.5t-115.5 322.5q0 134 60 232t169 145q-85 50 -132.5 136t-47.5 191z" />
    <glyph glyph-name="nine" unicode="9" 
d="M504 659q93 0 175.5 71.5t123.5 188.5q-36 461 -291 461q-134 0 -213.5 -99.5t-79.5 -270.5q0 -164 76.5 -257.5t208.5 -93.5zM190 157q106 -63 217 -63q180 0 287 164.5t113 453.5q-108 -172 -318 -172q-178 0 -283.5 126.5t-105.5 343.5q0 226 111 357.5t301 131.5
q416 0 416 -701q0 -406 -133 -614.5t-392 -208.5q-145 0 -262 70z" />
    <glyph glyph-name="colon" unicode=":" 
d="M401 0v225h225v-225h-225zM401 954h225v-225h-225v225z" />
    <glyph glyph-name="semicolon" unicode=";" 
d="M401 954h225v-225h-225v225zM401 225h225v-225q0 -61 -27 -117.5t-94 -128.5l-61 47q100 93 100 199h-143v225z" />
    <glyph glyph-name="less" unicode="&#x3c;" 
d="M942 141l-55 -106l-801 442l801 442l55 -106l-610 -336z" />
    <glyph glyph-name="equal" unicode="=" 
d="M68 373h893v-119h-893v119zM68 700h893v-119h-893v119z" />
    <glyph glyph-name="greater" unicode="&#x3e;" 
d="M86 141l610 336l-610 336l55 106l801 -442l-801 -442z" />
    <glyph glyph-name="question" unicode="?" 
d="M762 903l-116 -125q-39 -40 -55.5 -89.5t-16.5 -127.5v-168h-119v168q0 108 18.5 167.5t67.5 110.5l125 134q86 92 86 186q0 100 -64.5 160.5t-172.5 60.5q-115 0 -181.5 -63.5t-66.5 -173.5h-119q0 162 98.5 259t268.5 97q163 0 259.5 -94t96.5 -246q0 -140 -109 -256z
M406 205h217v-205h-217v205z" />
    <glyph glyph-name="at" unicode="@" 
d="M598 504l41 427q-38 31 -92 31q-83 0 -130.5 -76.5t-47.5 -211.5q0 -91 40 -144t107 -53q51 0 82 27zM654 1067h118l-51 -527q-6 -75 45 -75q123 0 123 348q0 331 -88.5 490t-273.5 159q-387 0 -387 -725q0 -357 106 -543t309 -186q89 0 169.5 38t137.5 107l66 -92
q-67 -74 -168.5 -118t-204.5 -44q-252 0 -388 216t-136 622q0 404 128.5 619t367.5 215q471 0 471 -758q0 -202 -65 -328.5t-169 -126.5q-89 0 -127 49q-49 -49 -147 -49q-106 0 -173 90.5t-67 225.5q0 187 77.5 297t207.5 110q68 0 117 -31z" />
    <glyph glyph-name="A" unicode="A" 
d="M422 1475h184l360 -1475h-122l-105 426h-450l-105 -426h-122zM318 545h392l-196 809z" />
    <glyph glyph-name="B" unicode="B" 
d="M123 0v1475h375q179 0 282 -97.5t103 -261.5q0 -131 -47.5 -220t-132.5 -118q115 -28 179 -123.5t64 -240.5q0 -201 -115.5 -307.5t-332.5 -106.5h-375zM242 827h256q123 0 194.5 75t71.5 204q0 120 -69 185t-197 65h-256v-529zM242 119h256q161 0 245 75.5t84 219.5
q0 143 -84.5 218.5t-244.5 75.5h-256v-589z" />
    <glyph glyph-name="C" unicode="C" 
d="M817 1157q-34 107 -102 165t-162 58q-344 0 -344 -643q0 -317 87.5 -480t256.5 -163q104 0 178.5 82t87.5 213l119 -12q-18 -179 -124.5 -290.5t-260.5 -111.5q-225 0 -344 196t-119 566q0 372 119 567t344 195q132 0 230 -78.5t145 -222.5z" />
    <glyph glyph-name="D" unicode="D" 
d="M242 119h225q102 0 167.5 32t105.5 100q79 136 79 486q0 349 -80 486q-40 69 -105.5 101t-166.5 32h-225v-1237zM123 0v1475h344q257 0 364 -166t107 -572t-107 -571.5t-364 -165.5h-344z" />
    <glyph glyph-name="E" unicode="E" 
d="M289 119h600v-119h-719v1475h719v-119h-600v-541h442v-119h-442v-577z" />
    <glyph glyph-name="F" unicode="F" 
d="M303 0h-119v1475h719v-119h-600v-541h442v-119h-442v-696z" />
    <glyph glyph-name="G" unicode="G" 
d="M821 608h-332v119h451v-727h-119v147q-97 -172 -307 -172q-216 0 -320 188t-104 574q0 762 449 762q169 0 279.5 -113t121.5 -299h-119q-13 134 -89 213.5t-193 79.5q-170 0 -250 -157t-80 -486q0 -341 71 -492t232 -151q139 0 224 128t85 325v61z" />
    <glyph glyph-name="H" unicode="H" 
d="M123 0v1475h119v-660h544v660h119v-1475h-119v696h-544v-696h-119z" />
    <glyph glyph-name="I" unicode="I" 
d="M199 119h256v1237h-256v119h631v-119h-256v-1237h256v-119h-631v119z" />
    <glyph glyph-name="J" unicode="J" 
d="M438 1475h436v-1057q0 -225 -92 -334t-284 -109q-193 0 -285 108.5t-92 334.5v159h119v-159q0 -166 63 -245t195 -79t194.5 79.5t62.5 244.5v938h-317v119z" />
    <glyph glyph-name="K" unicode="K" 
d="M123 0v1475h119v-611l532 611h158l-596 -683l602 -792h-149l-547 721v-721h-119z" />
    <glyph glyph-name="L" unicode="L" 
d="M301 119h602v-119h-721v1475h119v-1356z" />
    <glyph glyph-name="M" unicode="M" 
d="M258 1475l256 -800l256 800h186v-1475h-119v1295l-272 -845h-102l-272 845v-1295h-119v1475h186z" />
    <glyph glyph-name="N" unicode="N" 
d="M303 1475l483 -1303v1303h119v-1475h-180l-483 1303v-1303h-119v1475h180z" />
    <glyph glyph-name="O" unicode="O" 
d="M819 737q0 341 -72 492t-233 151t-233 -151t-72 -492t72 -492t233 -151t233 151t72 492zM90 737q0 387 105 574.5t319 187.5t319 -187.5t105 -574.5t-105 -574.5t-319 -187.5t-319 187.5t-105 574.5z" />
    <glyph glyph-name="P" unicode="P" 
d="M291 721h246q146 0 214 77t68 240q0 164 -68 241t-214 77h-246v-635zM291 602v-602h-119v1475h365q207 0 304 -106t97 -331q0 -224 -97 -330t-304 -106h-246z" />
    <glyph glyph-name="Q" unicode="Q" 
d="M90 737q0 387 105 574.5t319 187.5t319 -187.5t105 -574.5q0 -544 -213 -700l227 -332l-131 -26l-211 306q-45 -10 -96 -10q-214 0 -319 187.5t-105 574.5zM819 737q0 341 -72 492t-233 151t-233 -151t-72 -492t72 -492t233 -151t233 151t72 492z" />
    <glyph glyph-name="R" unicode="R" 
d="M291 618v-618h-119v1475h342q215 0 319.5 -105.5t104.5 -322.5q0 -361 -303 -421l352 -626h-137l-346 618h-213zM291 737h223q155 0 230 76t75 234q0 157 -75 233t-230 76h-223v-619z" />
    <glyph glyph-name="S" unicode="S" 
d="M254 1159q0 -73 40.5 -130t137.5 -120l276 -178q120 -77 177 -171t57 -214q0 -168 -116 -269.5t-306 -101.5q-123 0 -227.5 55t-173.5 156l96 70q112 -162 305 -162q137 0 220 69.5t83 182.5q0 173 -182 289l-283 180q-223 142 -223 336q0 153 104.5 250.5t266.5 97.5
q120 0 213.5 -48.5t175.5 -152.5l-97 -71q-62 80 -132 116.5t-160 36.5q-109 0 -180.5 -64t-71.5 -157z" />
    <glyph glyph-name="T" unicode="T" 
d="M573 0h-119v1356h-379v119h877v-119h-379v-1356z" />
    <glyph glyph-name="U" unicode="U" 
d="M790 1475h119v-1064q0 -221 -97 -328.5t-298 -107.5t-298 107.5t-97 328.5v1064h119v-1064q0 -161 67.5 -239t208.5 -78t208.5 78t67.5 239v1064z" />
    <glyph glyph-name="V" unicode="V" 
d="M422 0l-361 1475h123l330 -1356l330 1356h123l-361 -1475h-184z" />
    <glyph glyph-name="W" unicode="W" 
d="M705 0l-191 704l-190 -704h-134l-153 1475h119l125 -1205l190 709h86l191 -709l124 1205h119l-153 -1475h-133z" />
    <glyph glyph-name="X" unicode="X" 
d="M805 0l-291 616l-291 -616h-131l357 758l-338 717h131l272 -578l272 578h132l-338 -717l356 -758h-131z" />
    <glyph glyph-name="Y" unicode="Y" 
d="M515 776l307 699h129l-377 -855v-620h-119v620l-377 855h129z" />
    <glyph glyph-name="Z" unicode="Z" 
d="M258 119h686v-119h-821v119l665 1237h-645v119h781v-119z" />
    <glyph glyph-name="bracketleft" unicode="[" 
d="M276 -256v1827h475v-119h-356v-1589h356v-119h-475z" />
    <glyph glyph-name="backslash" unicode="\" 
d="M287 1499l583 -1524h-127l-583 1524h127z" />
    <glyph glyph-name="bracketright" unicode="]" 
d="M752 -256h-475v119h356v1589h-356v119h475v-1827z" />
    <glyph glyph-name="asciicircum" unicode="^" 
d="M442 1475h144l282 -436l-100 -66l-254 394l-254 -392l-100 66z" />
    <glyph glyph-name="underscore" unicode="_" 
d="M1069 -408v-104h-1110v104h1110z" />
    <glyph glyph-name="grave" unicode="`" 
d="M322 1421h219l168 -299h-86z" />
    <glyph glyph-name="a" unicode="a" 
d="M831 664v-431q0 -124 123 -147l-45 -111q-133 31 -179 144q-115 -144 -304 -144q-143 0 -226 88.5t-83 243.5q0 151 101.5 242.5t266.5 91.5q111 0 227 -37v60q0 196 -235 196q-142 0 -259 -72l-58 105q146 86 317 86q354 0 354 -315zM712 479q-112 43 -227 43t-182 -59
t-67 -162q0 -95 51.5 -151t138.5 -56q93 0 167.5 46t118.5 132v207z" />
    <glyph glyph-name="b" unicode="b" 
d="M143 1475h119v-584q114 88 246 88q191 0 300.5 -134.5t109.5 -367.5q0 -234 -109 -368t-301 -134q-136 0 -250 92q-2 -25 -14 -67h-119q18 92 18 194v1281zM508 860q-78 0 -146.5 -37.5t-99.5 -97.5v-496q31 -60 99.5 -97.5t146.5 -37.5q137 0 214 101.5t77 281.5
t-77 281.5t-214 101.5z" />
    <glyph glyph-name="c" unicode="c" 
d="M822 260l86 -80q-72 -106 -157 -155.5t-194 -49.5q-195 0 -313.5 136.5t-118.5 365.5t118.5 365.5t313.5 136.5q117 0 209.5 -57.5t139.5 -159.5l-101 -68q-29 78 -94.5 122t-153.5 44q-142 0 -227.5 -104t-85.5 -279q0 -176 85 -279.5t228 -103.5q79 0 142 39.5
t123 126.5z" />
    <glyph glyph-name="d" unicode="d" 
d="M766 725q-31 59 -99 97t-146 38q-137 0 -214 -101.5t-77 -281.5t77 -281.5t214 -101.5q78 0 146 38t99 97v496zM885 1475v-1281q0 -102 18 -194h-119q-12 42 -14 67q-114 -92 -249 -92q-192 0 -301 134t-109 368q0 233 109.5 367.5t300.5 134.5q131 0 245 -88v584h119z
" />
    <glyph glyph-name="e" unicode="e" 
d="M928 96q-175 -121 -383 -121q-204 0 -315 130.5t-111 371.5q0 236 107.5 369t296.5 133q193 0 298 -138t105 -395h-688q9 -173 87 -262.5t220 -89.5q85 0 171 27.5t153 76.5zM523 860q-117 0 -188.5 -75t-92.5 -220h559q-44 295 -278 295z" />
    <glyph glyph-name="f" unicode="f" 
d="M158 835v119h254v230q0 145 79.5 230t213.5 85q126 0 215 -65l-27 -124q-94 70 -188 70q-79 0 -126.5 -53t-47.5 -143v-230h324v-119h-324v-835h-119v835h-254z" />
    <glyph glyph-name="g" unicode="g" 
d="M885 -33q0 -163 -106.5 -265.5t-270.5 -102.5q-176 0 -309 90l60 102q110 -73 249 -73q113 0 185.5 70.5t72.5 178.5v96q-114 -88 -245 -88q-191 0 -300.5 134.5t-109.5 367.5q0 234 109 368t301 134q135 0 249 -92q2 25 14 67h119q-18 -91 -18 -194v-793zM521 94
q78 0 146 38t99 97v496q-31 59 -99 97t-146 38q-137 0 -214 -101.5t-77 -281.5t77 -281.5t214 -101.5z" />
    <glyph glyph-name="h" unicode="h" 
d="M143 0v1475h119v-703q62 99 147.5 153t182.5 54q149 0 228 -93.5t79 -269.5v-616h-119v616q0 119 -48.5 181.5t-139.5 62.5q-138 0 -234 -122t-96 -296v-442h-119z" />
    <glyph glyph-name="i" unicode="i" 
d="M190 954h490v-954h-119v835h-371v119zM528 1362h164v-164h-164v164z" />
    <glyph glyph-name="j" unicode="j" 
d="M303 954h490v-979q0 -182 -87 -279t-247 -97t-247 97t-87 279v25h119v-25q0 -124 56 -190.5t159 -66.5t159 66.5t56 190.5v860h-371v119zM641 1362h164v-164h-164v164z" />
    <glyph glyph-name="k" unicode="k" 
d="M340 542l381 412h164l-395 -424l444 -530h-156l-368 442l-70 -74v-368h-119v1475h119v-933z" />
    <glyph glyph-name="l" unicode="l" 
d="M565 0v1356h-326v119h445v-1475h-119z" />
    <glyph glyph-name="m" unicode="m" 
d="M580 614v-614h-119v729q0 131 -109 131q-68 0 -122 -75t-54 -171v-614h-119v786q0 91 -18 168h119q12 -36 18 -88q30 53 81.5 83t111.5 30q72 0 124 -34t71 -95q84 129 208 129q102 0 156.5 -64t54.5 -186v-729h-119v729q0 131 -108 131q-68 0 -122 -75t-54 -171z" />
    <glyph glyph-name="n" unicode="n" 
d="M143 0v770q0 98 -20 184h118q21 -82 21 -182q62 99 147.5 153t182.5 54q149 0 228 -93.5t79 -269.5v-616h-119v616q0 119 -48.5 181.5t-139.5 62.5q-138 0 -234 -122t-96 -296v-442h-119z" />
    <glyph glyph-name="o" unicode="o" 
d="M111 479q0 235 108 367.5t296 132.5q187 0 295 -132.5t108 -367.5q0 -236 -108 -370t-295 -134t-295.5 134t-108.5 370zM515 860q-134 0 -209.5 -101t-75.5 -280q0 -180 76 -282.5t209 -102.5q132 0 208 102.5t76 282.5q0 179 -75.5 280t-208.5 101z" />
    <glyph glyph-name="p" unicode="p" 
d="M262 229q31 -60 99.5 -97.5t146.5 -37.5q137 0 214 101.5t77 281.5t-77 281.5t-214 101.5q-78 0 -146.5 -37.5t-99.5 -97.5v-496zM143 -401v1161q0 103 -18 194h119q12 -42 14 -67q114 92 250 92q192 0 301 -134t109 -368q0 -233 -109.5 -367.5t-300.5 -134.5
q-132 0 -246 88v-464h-119z" />
    <glyph glyph-name="q" unicode="q" 
d="M885 -401h-119v464q-114 -88 -245 -88q-191 0 -300.5 134.5t-109.5 367.5q0 234 109 368t301 134q135 0 249 -92q2 25 14 67h119q-18 -91 -18 -195v-1160zM521 94q78 0 146 38t99 97v496q-32 59 -100 97t-145 38q-137 0 -214 -101.5t-77 -281.5t77 -281.5t214 -101.5z
" />
    <glyph glyph-name="r" unicode="r" 
d="M911 708h-118q0 80 -22 116t-71 36t-105 -45t-109 -125q-47 -71 -76 -146.5t-29 -126.5v-417h-119v637q0 63 -13 158.5t-30 158.5h119q31 -109 43 -244q67 127 152.5 198t171.5 71q206 0 206 -271z" />
    <glyph glyph-name="s" unicode="s" 
d="M379 483q-186 66 -186 246q0 107 87 178.5t226 71.5q196 0 327 -131l-70 -97q-62 58 -122 83.5t-135 25.5q-89 0 -141.5 -36t-52.5 -95q0 -96 120 -139l256 -93q182 -67 182 -253q0 -119 -93.5 -194t-243.5 -75q-108 0 -202 41.5t-158 118.5l77 92q112 -133 283 -133
q97 0 157.5 41t60.5 104q0 110 -112 150z" />
    <glyph glyph-name="t" unicode="t" 
d="M131 954h219v343h119v-343h330v-119h-330v-579q0 -77 33.5 -119.5t93.5 -42.5q61 0 104 43.5t80 144.5l103 -59q-88 -248 -287 -248q-116 0 -181 74t-65 207v579h-219v119z" />
    <glyph glyph-name="u" unicode="u" 
d="M885 954v-770q0 -98 20 -184h-118q-21 82 -21 184v33q-55 -117 -140.5 -179.5t-189.5 -62.5q-149 0 -228 93.5t-79 269.5v616h119v-616q0 -118 49 -181t139 -63q137 0 236 148q94 141 94 317v395h119z" />
    <glyph glyph-name="v" unicode="v" 
d="M442 0l-340 954h127l285 -802l285 802h127l-340 -954h-144z" />
    <glyph glyph-name="w" unicode="w" 
d="M242 0l-201 954h121l147 -696l164 594h82l164 -592l147 694h121l-203 -954h-108l-162 585l-164 -585h-108z" />
    <glyph glyph-name="x" unicode="x" 
d="M96 0l346 500l-313 454h143l242 -350l242 350h143l-313 -454l346 -500h-144l-274 395l-274 -395h-144z" />
    <glyph glyph-name="y" unicode="y" 
d="M102 954h129l332 -735l264 735h127l-411 -1142q-78 -213 -248 -213q-95 0 -159.5 67t-92.5 195l115 32q33 -175 137 -175q46 0 77.5 32t59.5 107l74 200z" />
    <glyph glyph-name="z" unicode="z" 
d="M180 954h684v-119l-555 -716h584v-119h-733v119l555 716h-535v119z" />
    <glyph glyph-name="braceleft" unicode="{" 
d="M723 -256q-122 0 -194 71.5t-72 194.5v340q0 121 -67.5 185t-194.5 63v119q126 -1 194 63t68 184v341q0 123 72 194.5t194 71.5h140v-119h-140q-69 0 -108 -39t-39 -108v-341q0 -208 -166 -306q166 -100 166 -308v-340q0 -69 39 -108t108 -39h140v-119h-140z" />
    <glyph glyph-name="bar" unicode="|" 
d="M461 1536h106v-2048h-106v2048z" />
    <glyph glyph-name="braceright" unicode="}" 
d="M586 10q0 -123 -72 -194.5t-194 -71.5h-140v119h140q69 0 108 39t39 108v340q0 208 166 308q-166 98 -166 306v341q0 69 -39 108t-108 39h-140v119h140q122 0 194 -71.5t72 -194.5v-341q0 -120 68 -184t194 -63v-119q-127 1 -194.5 -63t-67.5 -185v-340z" />
    <glyph glyph-name="asciitilde" unicode="~" 
d="M406 461q-59 32 -111 32q-127 0 -191 -145l-96 72q40 91 113.5 143.5t163.5 52.5q91 0 176 -45l164 -82q60 -28 112 -28q121 0 187 141l96 -72q-41 -92 -113.5 -142t-163.5 -50q-90 0 -176 43z" />
    <glyph glyph-name="exclamdown" unicode="&#xa1;" 
d="M613 -520h-197l39 1082h119zM623 750h-217v204h217v-204z" />
    <glyph glyph-name="cent" unicode="&#xa2;" 
d="M244 737q0 -148 60.5 -245.5t170.5 -127.5v746q-107 -29 -169 -128t-62 -245zM821 520l86 -80q-66 -98 -140.5 -146.5t-172.5 -56.5v-237h-119v241q-165 33 -257.5 163.5t-92.5 332.5q0 203 94 334.5t256 159.5v244h119v-238q212 -19 311 -215l-100 -68
q-31 74 -79.5 112.5t-131.5 51.5v-762q130 17 227 164z" />
    <glyph glyph-name="sterling" unicode="&#xa3;" 
d="M291 569l-27 121h-160v119h133l-24 112q-31 131 -31 224q0 157 101.5 255.5t257.5 98.5q197 0 358 -131l-76 -98q-71 60 -135 85t-147 25q-102 0 -171 -65.5t-69 -161.5q0 -80 31 -219l26 -125h338v-119h-311l23 -100q16 -80 16 -150q0 -74 -26.5 -151t-69.5 -127
q39 18 104 18q60 0 155 -43t144 -43q101 0 191 94l69 -71q-51 -66 -122.5 -104t-143.5 -38q-58 0 -155 43t-164 43q-75 0 -134.5 -19t-130.5 -67l-55 103q113 71 166 158.5t53 201.5q0 66 -14 131z" />
    <glyph glyph-name="currency" unicode="&#xa4;" 
d="M514 1048q-129 0 -220 -91t-91 -220t91 -220t220 -91t220 91t91 220t-91 220t-220 91zM84 737q0 132 86 260l-166 166l84 84l166 -166q128 86 260 86t260 -86l166 166l84 -84l-166 -166q39 -54 62.5 -124.5t23.5 -135.5q0 -132 -86 -260l166 -166l-84 -84l-166 166
q-128 -86 -260 -86t-260 86l-166 -166l-84 84l166 166q-86 128 -86 260z" />
    <glyph glyph-name="yen" unicode="&#xa5;" 
d="M515 821l295 654h129l-340 -754h299v-119h-324v-127h324v-119h-324v-356h-119v356h-324v119h324v127h-324v119h299l-340 754h129z" />
    <glyph glyph-name="brokenbar" unicode="&#xa6;" 
d="M461 485h106v-808h-106v808zM461 1499h106v-807h-106v807z" />
    <glyph glyph-name="section" unicode="&#xa7;" 
d="M400 454l239 -116q141 99 141 229q0 141 -151 215l-239 117q-142 -106 -142 -230q0 -139 152 -215zM899 577q0 -170 -164 -301q97 -88 97 -231q0 -140 -86 -223.5t-231 -83.5q-197 0 -343 164l80 88q90 -79 144.5 -106t118.5 -27q87 0 142.5 52.5t55.5 135.5
q0 127 -113 182l-239 117q-232 113 -232 315q0 177 164 301q-96 91 -96 232q0 140 86.5 223.5t231.5 83.5q197 0 341 -164l-80 -88q-88 79 -143 106t-118 27q-87 0 -143 -52.5t-56 -135.5q0 -129 113 -182l239 -117q231 -112 231 -316z" />
    <glyph glyph-name="dieresis" unicode="&#xa8;" 
d="M616 1317h164v-154h-164v154zM248 1317h164v-154h-164v154z" />
    <glyph glyph-name="copyright" unicode="&#xa9;" 
d="M515 1188q-188 0 -320 -131.5t-132 -319.5q0 -187 132 -318.5t320 -131.5q187 0 318.5 131.5t131.5 318.5t-131.5 319t-318.5 132zM613 929q-18 49 -43 70t-64 21q-143 0 -143 -283q0 -282 143 -282q89 0 109 121l74 -9q-10 -84 -60.5 -136t-122.5 -52q-106 0 -162.5 92
t-56.5 266t56.5 266.5t162.5 92.5q63 0 109 -37t67 -105zM2 737q0 212 150.5 362t362.5 150t361.5 -150t149.5 -362q0 -211 -149.5 -361t-361.5 -150t-362.5 150t-150.5 361z" />
    <glyph glyph-name="ordfeminine" unicode="&#xaa;" 
d="M191 600h646v-96h-646v96zM774 1245v-346q0 -99 98 -119l-37 -88q-105 24 -143 114q-94 -114 -243 -114q-116 0 -183 71t-67 195q0 122 81.5 195.5t215.5 73.5q95 0 182 -29v47q0 158 -188 158q-118 0 -209 -57l-47 84q114 69 256 69q284 0 284 -254zM678 1098
q-92 35 -182 35q-93 0 -147 -48t-54 -131q0 -77 41.5 -121.5t112.5 -44.5q75 0 135 37.5t94 105.5v167z" />
    <glyph glyph-name="guillemotleft" unicode="&#xab;" 
d="M930 813l-336 -336l336 -336l-84 -84l-420 420l420 420zM602 813l-336 -336l336 -336l-84 -84l-420 420l420 420z" />
    <glyph glyph-name="logicalnot" unicode="&#xac;" 
d="M946 737v-553h-131v422h-733v131h864z" />
    <glyph glyph-name="hyphen" unicode="&#xad;" 
d="M176 537h676v-119h-676v119z" />
    <glyph glyph-name="registered" unicode="&#xae;" 
d="M514 1188q-187 0 -319 -131.5t-132 -318.5t132 -319t319 -132q188 0 319.5 132t131.5 319t-132 318.5t-319 131.5zM424 676v-285h-76v692h166q203 0 203 -200q0 -170 -127 -199l162 -293h-86l-158 285h-84zM424 752h90q127 0 127 131q0 64 -30.5 94t-96.5 30h-90v-255z
M2 738q0 211 150 361t362 150t362 -150t150 -361q0 -212 -150 -362t-362 -150t-362 150t-150 362z" />
    <glyph glyph-name="macron" unicode="&#xaf;" 
d="M782 1163h-536v119h536v-119z" />
    <glyph glyph-name="degree" unicode="&#xb0;" 
d="M514 1397q-85 0 -145 -60t-60 -145t60 -145t145 -60t145 60t60 145t-60 145t-145 60zM207 1192q0 128 90 217.5t217 89.5q128 0 217.5 -89.5t89.5 -217.5q0 -127 -89.5 -217t-217.5 -90q-127 0 -217 90t-90 217z" />
    <glyph glyph-name="plusminus" unicode="&#xb1;" 
d="M455 1040h119v-387h387v-119h-387v-387h-119v387h-387v119h387v387zM68 -84v119h893v-119h-893z" />
    <glyph glyph-name="twosuperior" unicode="&#xb2;" 
d="M639 1102l-143 -107q-131 -96 -131 -198h375v-59h-457q0 104 35.5 168.5t130.5 134.5l137 100q53 40 75.5 73.5t22.5 72.5q0 61 -49 101t-123 40q-72 0 -119.5 -42.5t-47.5 -105.5h-72q0 89 68 148t171 59q106 0 175 -56.5t69 -143.5q0 -99 -117 -185z" />
    <glyph glyph-name="threesuperior" unicode="&#xb3;" 
d="M287 1385q95 102 231 102q95 0 158.5 -49.5t63.5 -120.5q0 -127 -146 -177q170 -46 170 -200q0 -94 -71 -154.5t-181 -60.5q-78 0 -142.5 31t-104.5 87l59 33q66 -92 184 -92q84 0 134 43.5t50 114.5q0 77 -60.5 121.5t-172.5 48.5v59q209 11 209 142q0 51 -43 83
t-107 32q-94 0 -169 -78z" />
    <glyph glyph-name="acute" unicode="&#xb4;" 
d="M709 1421l-301 -299h-86l168 299h219z" />
    <glyph glyph-name="mu" unicode="&#xb5;" 
d="M979 954l-164 -770q-21 -109 -18 -184h-119q-3 75 18 184l9 33q-80 -116 -179.5 -179t-203.5 -63q-110 0 -177 56l-92 -432h-119l289 1355h119l-131 -616q-25 -118 10.5 -181t126.5 -63q133 0 261.5 141.5t166.5 323.5l84 395h119z" />
    <glyph glyph-name="paragraph" unicode="&#xb6;" 
d="M424 -401v989q-144 30 -243 155t-99 281q0 188 132 319.5t319 131.5h414v-119h-162v-1757h-119v1757h-123v-1757h-119z" />
    <glyph glyph-name="periodcentered" unicode="&#xb7;" 
d="M401 625v225h225v-225h-225z" />
    <glyph glyph-name="cedilla" unicode="&#xb8;" 
d="M500 0h100l-23 -113q13 2 37 2q77 0 124.5 -40.5t47.5 -104.5q0 -67 -55 -106t-145 -39q-126 0 -215 41l47 90q80 -33 168 -33q102 0 102 49q0 19 -30 32t-70 13q-64 0 -131 -14z" />
    <glyph glyph-name="onesuperior" unicode="&#xb9;" 
d="M264 1393l201 82h84v-738h-72v675l-213 -84v65z" />
    <glyph glyph-name="ordmasculine" unicode="&#xba;" 
d="M190 1098q0 188 86.5 294.5t237.5 106.5q150 0 236.5 -106.5t86.5 -294.5q0 -190 -86.5 -298t-236.5 -108q-151 0 -237.5 108t-86.5 298zM514 1403q-107 0 -168.5 -81t-61.5 -224q0 -145 61.5 -227.5t168.5 -82.5t168 82.5t61 227.5q0 142 -61 223.5t-168 81.5zM190 600
h647v-96h-647v96z" />
    <glyph glyph-name="guillemotright" unicode="&#xbb;" 
d="M100 813l84 84l420 -420l-420 -420l-84 84l336 336zM428 813l84 84l420 -420l-420 -420l-84 84l336 336z" />
    <glyph glyph-name="onequarter" unicode="&#xbc;" 
d="M555 369l-193 -324h193v324zM555 -198v141h-316v96l295 498h123v-492h131v-102h-131v-141h-102zM262 1489l203 82h114v-738h-102v632l-215 -86v110zM43 737h942v-102h-942v102z" />
    <glyph glyph-name="onehalf" unicode="&#xbd;" 
d="M643 154l-164 -125q-75 -58 -75 -125h365v-102h-486q0 111 29 180t98 123l155 118q50 40 69 67.5t19 60.5q0 44 -38 71t-101 27t-100 -28.5t-37 -76.5h-102q0 90 67.5 148.5t171.5 58.5q105 0 173 -56t68 -144q0 -110 -112 -197zM263 1489l202 82h114v-738h-102v632
l-214 -86v110zM43 737h941v-102h-941v102z" />
    <glyph glyph-name="threequarters" unicode="&#xbe;" 
d="M283 1481q51 54 105.5 78t125.5 24q95 0 158 -49.5t63 -120.5q0 -126 -145 -176q169 -48 169 -201q0 -93 -70.5 -153.5t-180.5 -60.5q-79 0 -143.5 31t-104.5 87l76 68q62 -84 168 -84q73 0 113 30t40 84q0 60 -52.5 99t-149.5 49v102q92 11 135 40t43 81q0 31 -34 51.5
t-85 20.5q-48 0 -82.5 -16t-73.5 -58zM555 369l-193 -324h193v324zM555 -198v141h-315v96l295 498h122v-492h131v-102h-131v-141h-102zM43 737h941v-102h-941v102z" />
    <glyph glyph-name="questiondown" unicode="&#xbf;" 
d="M267 51l116 125q39 41 55.5 90.5t16.5 127.5v168h119v-168q0 -108 -18.5 -167.5t-67.5 -111.5l-125 -134q-86 -92 -86 -186q0 -100 65 -160.5t173 -60.5q115 0 181 63.5t66 174.5h119q0 -163 -98.5 -260t-267.5 -97q-163 0 -260 94t-97 246q0 142 109 256zM623 750h-217
v204h217v-204z" />
    <glyph glyph-name="Agrave" unicode="&#xc0;" 
d="M322 1933h219l168 -299h-86zM422 1475h184l360 -1475h-122l-105 426h-450l-105 -426h-122zM318 545h392l-196 809z" />
    <glyph glyph-name="Aacute" unicode="&#xc1;" 
d="M709 1933l-301 -299h-86l168 299h219zM422 1475h184l360 -1475h-122l-105 426h-450l-105 -426h-122zM318 545h392l-196 809z" />
    <glyph glyph-name="Acircumflex" unicode="&#xc2;" 
d="M215 1634l229 299h140l229 -299h-106l-193 160l-193 -160h-106zM422 1475h184l360 -1475h-122l-105 426h-450l-105 -426h-122zM318 545h392l-196 809z" />
    <glyph glyph-name="Atilde" unicode="&#xc3;" 
d="M227 1650l-63 97q49 49 98 69.5t117 20.5q59 0 119 -25l59 -24q51 -23 92 -23q84 0 152 68l63 -97q-49 -49 -98 -69.5t-117 -20.5q-59 0 -119 25l-59 24q-51 23 -92 23q-84 0 -152 -68zM422 1475h184l360 -1475h-122l-105 426h-450l-105 -426h-122zM318 545h392l-196 809
z" />
    <glyph glyph-name="Adieresis" unicode="&#xc4;" 
d="M616 1829h164v-154h-164v154zM248 1829h164v-154h-164v154zM422 1475h184l360 -1475h-122l-105 426h-450l-105 -426h-122zM318 545h392l-196 809z" />
    <glyph glyph-name="Aring" unicode="&#xc5;" 
d="M514 1889q-35 0 -60.5 -25.5t-25.5 -60.5q0 -36 25.5 -61.5t60.5 -25.5t60.5 25.5t25.5 61.5q0 35 -25.5 60.5t-60.5 25.5zM330 1803q0 77 54 130.5t130 53.5q77 0 130.5 -53.5t53.5 -130.5t-53.5 -131t-130.5 -54t-130.5 54t-53.5 131zM422 1475h184l360 -1475h-122
l-105 426h-450l-105 -426h-122zM318 545h392l-196 809z" />
    <glyph glyph-name="AE" unicode="&#xc6;" 
d="M318 545h227v811h-31zM422 1475h555v-119h-313v-541h236v-119h-236v-577h313v-119h-432v426h-256l-104 -426h-123z" />
    <glyph glyph-name="Ccedilla" unicode="&#xc7;" 
d="M816 1157q-33 107 -101 165t-162 58q-344 0 -344 -643q0 -317 87.5 -480t256.5 -163q104 0 178 82t87 213l119 -12q-18 -176 -120.5 -287t-251.5 -115l-18 -88q12 2 36 2q77 0 124.5 -40.5t47.5 -104.5q0 -67 -55 -106t-145 -39q-126 0 -215 41l47 90q80 -33 168 -33
q102 0 102 49q0 19 -30 32t-70 13q-63 0 -131 -14l39 206q-183 38 -279 230.5t-96 523.5q0 372 119 567t344 195q132 0 230 -78.5t144 -222.5z" />
    <glyph glyph-name="Egrave" unicode="&#xc8;" 
d="M322 1933h219l168 -299h-86zM289 119h600v-119h-719v1475h719v-119h-600v-541h442v-119h-442v-577z" />
    <glyph glyph-name="Eacute" unicode="&#xc9;" 
d="M709 1933l-301 -299h-86l168 299h219zM289 119h600v-119h-719v1475h719v-119h-600v-541h442v-119h-442v-577z" />
    <glyph glyph-name="Ecircumflex" unicode="&#xca;" 
d="M215 1634l229 299h140l229 -299h-106l-193 160l-193 -160h-106zM289 119h600v-119h-719v1475h719v-119h-600v-541h442v-119h-442v-577z" />
    <glyph glyph-name="Edieresis" unicode="&#xcb;" 
d="M616 1829h164v-154h-164v154zM248 1829h164v-154h-164v154zM289 119h600v-119h-719v1475h719v-119h-600v-541h442v-119h-442v-577z" />
    <glyph glyph-name="Igrave" unicode="&#xcc;" 
d="M322 1933h219l168 -299h-86zM199 119h256v1237h-256v119h631v-119h-256v-1237h256v-119h-631v119z" />
    <glyph glyph-name="Iacute" unicode="&#xcd;" 
d="M709 1933l-301 -299h-86l168 299h219zM199 119h256v1237h-256v119h631v-119h-256v-1237h256v-119h-631v119z" />
    <glyph glyph-name="Icircumflex" unicode="&#xce;" 
d="M215 1634l229 299h140l229 -299h-106l-193 160l-193 -160h-106zM199 119h256v1237h-256v119h631v-119h-256v-1237h256v-119h-631v119z" />
    <glyph glyph-name="Idieresis" unicode="&#xcf;" 
d="M616 1829h164v-154h-164v154zM248 1829h164v-154h-164v154zM199 119h256v1237h-256v119h631v-119h-256v-1237h256v-119h-631v119z" />
    <glyph glyph-name="Eth" unicode="&#xd0;" 
d="M242 698v-579h225q102 0 167.5 32t105.5 100q79 136 79 486q0 349 -80 486q-40 69 -105.5 101t-166.5 32h-225v-539h272v-119h-272zM123 0v698h-82v119h82v658h344q257 0 364 -166t107 -572t-107 -571.5t-364 -165.5h-344z" />
    <glyph glyph-name="Ntilde" unicode="&#xd1;" 
d="M227 1650l-63 97q49 49 98 69.5t117 20.5q59 0 119 -25l59 -24q51 -23 92 -23q84 0 152 68l63 -97q-49 -49 -98 -69.5t-117 -20.5q-59 0 -119 25l-59 24q-51 23 -92 23q-84 0 -152 -68zM303 1475l483 -1303v1303h119v-1475h-180l-483 1303v-1303h-119v1475h180z" />
    <glyph glyph-name="Ograve" unicode="&#xd2;" 
d="M322 1933h219l168 -299h-86zM819 737q0 341 -72 492t-233 151t-233 -151t-72 -492t72 -492t233 -151t233 151t72 492zM90 737q0 387 105 574.5t319 187.5t319 -187.5t105 -574.5t-105 -574.5t-319 -187.5t-319 187.5t-105 574.5z" />
    <glyph glyph-name="Oacute" unicode="&#xd3;" 
d="M709 1933l-301 -299h-86l168 299h219zM819 737q0 341 -72 492t-233 151t-233 -151t-72 -492t72 -492t233 -151t233 151t72 492zM90 737q0 387 105 574.5t319 187.5t319 -187.5t105 -574.5t-105 -574.5t-319 -187.5t-319 187.5t-105 574.5z" />
    <glyph glyph-name="Ocircumflex" unicode="&#xd4;" 
d="M215 1634l229 299h140l229 -299h-106l-193 160l-193 -160h-106zM819 737q0 341 -72 492t-233 151t-233 -151t-72 -492t72 -492t233 -151t233 151t72 492zM90 737q0 387 105 574.5t319 187.5t319 -187.5t105 -574.5t-105 -574.5t-319 -187.5t-319 187.5t-105 574.5z" />
    <glyph glyph-name="Otilde" unicode="&#xd5;" 
d="M227 1650l-63 97q49 49 98 69.5t117 20.5q59 0 119 -25l59 -24q51 -23 92 -23q84 0 152 68l63 -97q-49 -49 -98 -69.5t-117 -20.5q-59 0 -119 25l-59 24q-51 23 -92 23q-84 0 -152 -68zM819 737q0 341 -72 492t-233 151t-233 -151t-72 -492t72 -492t233 -151t233 151
t72 492zM90 737q0 387 105 574.5t319 187.5t319 -187.5t105 -574.5t-105 -574.5t-319 -187.5t-319 187.5t-105 574.5z" />
    <glyph glyph-name="Odieresis" unicode="&#xd6;" 
d="M616 1829h164v-154h-164v154zM248 1829h164v-154h-164v154zM819 737q0 341 -72 492t-233 151t-233 -151t-72 -492t72 -492t233 -151t233 151t72 492zM90 737q0 387 105 574.5t319 187.5t319 -187.5t105 -574.5t-105 -574.5t-319 -187.5t-319 187.5t-105 574.5z" />
    <glyph glyph-name="multiply" unicode="&#xd7;" 
d="M127 780l84 84l303 -303l303 303l84 -84l-303 -303l303 -303l-84 -84l-303 303l-303 -303l-84 84l303 303z" />
    <glyph glyph-name="Oslash" unicode="&#xd8;" 
d="M209 737q0 -191 25 -338l513 830q-67 151 -233 151q-161 0 -233 -151t-72 -492zM792 1085l-515 -833q34 -76 95 -117t142 -41q161 0 233 151t72 492q0 189 -27 348zM90 737q0 387 105 574.5t319 187.5q193 0 303 -160l98 160l99 -57l-140 -224q64 -167 64 -481
q0 -387 -105 -574.5t-319 -187.5q-194 0 -307 164l-101 -164l-98 60l144 231q-62 159 -62 471z" />
    <glyph glyph-name="Ugrave" unicode="&#xd9;" 
d="M322 1933h219l168 -299h-86zM790 1475h119v-1064q0 -221 -97 -328.5t-298 -107.5t-298 107.5t-97 328.5v1064h119v-1064q0 -161 67.5 -239t208.5 -78t208.5 78t67.5 239v1064z" />
    <glyph glyph-name="Uacute" unicode="&#xda;" 
d="M709 1933l-301 -299h-86l168 299h219zM790 1475h119v-1064q0 -221 -97 -328.5t-298 -107.5t-298 107.5t-97 328.5v1064h119v-1064q0 -161 67.5 -239t208.5 -78t208.5 78t67.5 239v1064z" />
    <glyph glyph-name="Ucircumflex" unicode="&#xdb;" 
d="M215 1634l229 299h140l229 -299h-106l-193 160l-193 -160h-106zM790 1475h119v-1064q0 -221 -97 -328.5t-298 -107.5t-298 107.5t-97 328.5v1064h119v-1064q0 -161 67.5 -239t208.5 -78t208.5 78t67.5 239v1064z" />
    <glyph glyph-name="Udieresis" unicode="&#xdc;" 
d="M616 1829h164v-154h-164v154zM248 1829h164v-154h-164v154zM790 1475h119v-1064q0 -221 -97 -328.5t-298 -107.5t-298 107.5t-97 328.5v1064h119v-1064q0 -161 67.5 -239t208.5 -78t208.5 78t67.5 239v1064z" />
    <glyph glyph-name="Yacute" unicode="&#xdd;" 
d="M709 1933l-301 -299h-86l168 299h219zM515 776l307 699h129l-377 -855v-620h-119v620l-377 855h129z" />
    <glyph glyph-name="Thorn" unicode="&#xde;" 
d="M291 446h246q146 0 214 77t68 241q0 163 -68 240t-214 77h-246v-635zM291 327v-327h-119v1475h119v-275h246q207 0 304 -106t97 -330q0 -225 -97 -331t-304 -106h-246z" />
    <glyph glyph-name="germandbls" unicode="&#xdf;" 
d="M387 909h70q134 0 206 63.5t72 180.5q0 101 -61 164t-160 63q-119 0 -185.5 -71t-66.5 -199v-1110h-119v1110q0 185 97.5 287t273.5 102q154 0 247 -95.5t93 -250.5q0 -109 -51.5 -189.5t-139.5 -109.5q122 -35 188.5 -142.5t66.5 -269.5q0 -227 -104 -347t-300 -120
q-82 0 -139 25v127q57 -33 139 -33q138 0 211.5 90t73.5 258q0 163 -90.5 255.5t-251.5 92.5h-70v119z" />
    <glyph glyph-name="agrave" unicode="&#xe0;" 
d="M322 1421h219l168 -299h-86zM831 664v-431q0 -124 123 -147l-45 -111q-133 31 -179 144q-115 -144 -304 -144q-143 0 -226 88.5t-83 243.5q0 151 101.5 242.5t266.5 91.5q111 0 227 -37v60q0 196 -235 196q-142 0 -259 -72l-58 105q146 86 317 86q354 0 354 -315z
M712 479q-112 43 -227 43t-182 -59t-67 -162q0 -95 51.5 -151t138.5 -56q93 0 167.5 46t118.5 132v207z" />
    <glyph glyph-name="aacute" unicode="&#xe1;" 
d="M709 1421l-301 -299h-86l168 299h219zM831 664v-431q0 -124 123 -147l-45 -111q-133 31 -179 144q-115 -144 -304 -144q-143 0 -226 88.5t-83 243.5q0 151 101.5 242.5t266.5 91.5q111 0 227 -37v60q0 196 -235 196q-142 0 -259 -72l-58 105q146 86 317 86
q354 0 354 -315zM712 479q-112 43 -227 43t-182 -59t-67 -162q0 -95 51.5 -151t138.5 -56q93 0 167.5 46t118.5 132v207z" />
    <glyph glyph-name="acircumflex" unicode="&#xe2;" 
d="M215 1122l229 299h140l229 -299h-106l-193 160l-193 -160h-106zM831 664v-431q0 -124 123 -147l-45 -111q-133 31 -179 144q-115 -144 -304 -144q-143 0 -226 88.5t-83 243.5q0 151 101.5 242.5t266.5 91.5q111 0 227 -37v60q0 196 -235 196q-142 0 -259 -72l-58 105
q146 86 317 86q354 0 354 -315zM712 479q-112 43 -227 43t-182 -59t-67 -162q0 -95 51.5 -151t138.5 -56q93 0 167.5 46t118.5 132v207z" />
    <glyph glyph-name="atilde" unicode="&#xe3;" 
d="M227 1138l-63 97q49 49 98 69.5t117 20.5q59 0 119 -25l59 -24q51 -23 92 -23q84 0 152 68l63 -97q-49 -49 -98 -69.5t-117 -20.5q-59 0 -119 25l-59 24q-51 23 -92 23q-84 0 -152 -68zM831 664v-431q0 -124 123 -147l-45 -111q-133 31 -179 144q-115 -144 -304 -144
q-143 0 -226 88.5t-83 243.5q0 151 101.5 242.5t266.5 91.5q111 0 227 -37v60q0 196 -235 196q-142 0 -259 -72l-58 105q146 86 317 86q354 0 354 -315zM712 479q-112 43 -227 43t-182 -59t-67 -162q0 -95 51.5 -151t138.5 -56q93 0 167.5 46t118.5 132v207z" />
    <glyph glyph-name="adieresis" unicode="&#xe4;" 
d="M616 1317h164v-154h-164v154zM248 1317h164v-154h-164v154zM831 664v-431q0 -124 123 -147l-45 -111q-133 31 -179 144q-115 -144 -304 -144q-143 0 -226 88.5t-83 243.5q0 151 101.5 242.5t266.5 91.5q111 0 227 -37v60q0 196 -235 196q-142 0 -259 -72l-58 105
q146 86 317 86q354 0 354 -315zM712 479q-112 43 -227 43t-182 -59t-67 -162q0 -95 51.5 -151t138.5 -56q93 0 167.5 46t118.5 132v207z" />
    <glyph glyph-name="aring" unicode="&#xe5;" 
d="M514 1377q-35 0 -60.5 -25.5t-25.5 -60.5q0 -36 25.5 -61.5t60.5 -25.5t60.5 25.5t25.5 61.5q0 35 -25.5 60.5t-60.5 25.5zM330 1291q0 77 54 130.5t130 53.5q77 0 130.5 -53.5t53.5 -130.5t-53.5 -131t-130.5 -54t-130.5 54t-53.5 131zM831 664v-431q0 -124 123 -147
l-45 -111q-133 31 -179 144q-115 -144 -304 -144q-143 0 -226 88.5t-83 243.5q0 151 101.5 242.5t266.5 91.5q111 0 227 -37v60q0 196 -235 196q-142 0 -259 -72l-58 105q146 86 317 86q354 0 354 -315zM712 479q-112 43 -227 43t-182 -59t-67 -162q0 -95 51.5 -151
t138.5 -56q93 0 167.5 46t118.5 132v207z" />
    <glyph glyph-name="ae" unicode="&#xe6;" 
d="M721 860q-147 0 -147 -230v-65h294v65q0 230 -147 230zM455 450q-55 47 -113 47q-182 0 -182 -202q0 -96 47.5 -148.5t134.5 -52.5q65 0 113 78v278zM455 682q0 79 -38.5 128.5t-100.5 49.5q-51 0 -93 -20.5t-92 -71.5l-69 96q108 115 254 115q69 0 112.5 -28t86.5 -103
q28 58 85.5 94.5t120.5 36.5q266 0 266 -406v-127h-413v-156q0 -88 40 -142t107 -54q89 0 184 102l84 -86q-68 -71 -131.5 -103t-136.5 -32q-129 0 -206 92q-50 -51 -92.5 -71.5t-92.5 -20.5q-128 0 -208.5 90t-80.5 230q0 151 77 236t212 85q65 0 125 -37v103z" />
    <glyph glyph-name="ccedilla" unicode="&#xe7;" 
d="M821 260l86 -80q-138 -205 -350 -205h-2l-18 -88q12 2 36 2q77 0 124.5 -40.5t47.5 -104.5q0 -67 -55 -106t-145 -39q-126 0 -215 41l47 90q80 -33 168 -33q102 0 102 49q0 19 -30 32t-70 13q-63 0 -131 -14l41 208q-156 35 -244 165.5t-88 326.5q0 229 118.5 365.5
t313.5 136.5q116 0 208.5 -58t139.5 -159l-101 -68q-29 78 -94.5 122t-152.5 44q-142 0 -227.5 -104t-85.5 -279q0 -176 85 -279.5t228 -103.5q79 0 141.5 39t122.5 127z" />
    <glyph glyph-name="egrave" unicode="&#xe8;" 
d="M322 1421h219l168 -299h-86zM928 96q-175 -121 -383 -121q-204 0 -315 130.5t-111 371.5q0 236 107.5 369t296.5 133q193 0 298 -138t105 -395h-688q9 -173 87 -262.5t220 -89.5q85 0 171 27.5t153 76.5zM523 860q-117 0 -188.5 -75t-92.5 -220h559q-44 295 -278 295z
" />
    <glyph glyph-name="eacute" unicode="&#xe9;" 
d="M709 1421l-301 -299h-86l168 299h219zM928 96q-175 -121 -383 -121q-204 0 -315 130.5t-111 371.5q0 236 107.5 369t296.5 133q193 0 298 -138t105 -395h-688q9 -173 87 -262.5t220 -89.5q85 0 171 27.5t153 76.5zM523 860q-117 0 -188.5 -75t-92.5 -220h559
q-44 295 -278 295z" />
    <glyph glyph-name="ecircumflex" unicode="&#xea;" 
d="M215 1122l229 299h140l229 -299h-106l-193 160l-193 -160h-106zM928 96q-175 -121 -383 -121q-204 0 -315 130.5t-111 371.5q0 236 107.5 369t296.5 133q193 0 298 -138t105 -395h-688q9 -173 87 -262.5t220 -89.5q85 0 171 27.5t153 76.5zM523 860q-117 0 -188.5 -75
t-92.5 -220h559q-44 295 -278 295z" />
    <glyph glyph-name="edieresis" unicode="&#xeb;" 
d="M616 1317h164v-154h-164v154zM248 1317h164v-154h-164v154zM928 96q-175 -121 -383 -121q-204 0 -315 130.5t-111 371.5q0 236 107.5 369t296.5 133q193 0 298 -138t105 -395h-688q9 -173 87 -262.5t220 -89.5q85 0 171 27.5t153 76.5zM523 860q-117 0 -188.5 -75
t-92.5 -220h559q-44 295 -278 295z" />
    <glyph glyph-name="igrave" unicode="&#xec;" 
d="M362 1421h219l168 -299h-86zM190 954h490v-954h-119v835h-371v119z" />
    <glyph glyph-name="iacute" unicode="&#xed;" 
d="M749 1421l-301 -299h-86l168 299h219zM190 954h490v-954h-119v835h-371v119z" />
    <glyph glyph-name="icircumflex" unicode="&#xee;" 
d="M276 1122l229 299h140l229 -299h-106l-193 160l-193 -160h-106zM190 954h490v-954h-119v835h-371v119z" />
    <glyph glyph-name="idieresis" unicode="&#xef;" 
d="M719 1317h164v-154h-164v154zM350 1317h164v-154h-164v154zM190 954h490v-954h-119v835h-371v119z" />
    <glyph glyph-name="eth" unicode="&#xf0;" 
d="M514 790q-148 0 -234.5 -94.5t-86.5 -253.5q0 -158 87.5 -253t233.5 -95q144 0 228.5 106t95.5 299q-33 142 -116 216.5t-208 74.5zM74 442q0 208 123.5 337.5t316.5 129.5q89 0 176.5 -39t131.5 -100q-48 244 -258 436l-301 -192l-64 100l260 166q-98 66 -254 110
l47 109q172 -45 318 -148l231 148l64 -101l-195 -125q289 -277 289 -698q0 -291 -115.5 -445.5t-329.5 -154.5q-193 0 -316.5 129.5t-123.5 337.5z" />
    <glyph glyph-name="ntilde" unicode="&#xf1;" 
d="M227 1138l-63 97q49 49 98 69.5t117 20.5q59 0 119 -25l59 -24q51 -23 92 -23q84 0 152 68l63 -97q-49 -49 -98 -69.5t-117 -20.5q-59 0 -119 25l-59 24q-51 23 -92 23q-84 0 -152 -68zM143 0v770q0 98 -20 184h118q21 -82 21 -182q62 99 147.5 153t182.5 54
q149 0 228 -93.5t79 -269.5v-616h-119v616q0 119 -48.5 181.5t-139.5 62.5q-138 0 -234 -122t-96 -296v-442h-119z" />
    <glyph glyph-name="ograve" unicode="&#xf2;" 
d="M322 1421h219l168 -299h-86zM111 479q0 235 108 367.5t296 132.5q187 0 295 -132.5t108 -367.5q0 -236 -108 -370t-295 -134t-295.5 134t-108.5 370zM515 860q-134 0 -209.5 -101t-75.5 -280q0 -180 76 -282.5t209 -102.5q132 0 208 102.5t76 282.5q0 179 -75.5 280
t-208.5 101z" />
    <glyph glyph-name="oacute" unicode="&#xf3;" 
d="M709 1421l-301 -299h-86l168 299h219zM111 479q0 235 108 367.5t296 132.5q187 0 295 -132.5t108 -367.5q0 -236 -108 -370t-295 -134t-295.5 134t-108.5 370zM515 860q-134 0 -209.5 -101t-75.5 -280q0 -180 76 -282.5t209 -102.5q132 0 208 102.5t76 282.5
q0 179 -75.5 280t-208.5 101z" />
    <glyph glyph-name="ocircumflex" unicode="&#xf4;" 
d="M215 1122l229 299h140l229 -299h-106l-193 160l-193 -160h-106zM111 479q0 235 108 367.5t296 132.5q187 0 295 -132.5t108 -367.5q0 -236 -108 -370t-295 -134t-295.5 134t-108.5 370zM515 860q-134 0 -209.5 -101t-75.5 -280q0 -180 76 -282.5t209 -102.5
q132 0 208 102.5t76 282.5q0 179 -75.5 280t-208.5 101z" />
    <glyph glyph-name="otilde" unicode="&#xf5;" 
d="M227 1138l-63 97q49 49 98 69.5t117 20.5q59 0 119 -25l59 -24q51 -23 92 -23q84 0 152 68l63 -97q-49 -49 -98 -69.5t-117 -20.5q-59 0 -119 25l-59 24q-51 23 -92 23q-84 0 -152 -68zM111 479q0 235 108 367.5t296 132.5q187 0 295 -132.5t108 -367.5q0 -236 -108 -370
t-295 -134t-295.5 134t-108.5 370zM515 860q-134 0 -209.5 -101t-75.5 -280q0 -180 76 -282.5t209 -102.5q132 0 208 102.5t76 282.5q0 179 -75.5 280t-208.5 101z" />
    <glyph glyph-name="odieresis" unicode="&#xf6;" 
d="M616 1317h164v-154h-164v154zM248 1317h164v-154h-164v154zM111 479q0 235 108 367.5t296 132.5q187 0 295 -132.5t108 -367.5q0 -236 -108 -370t-295 -134t-295.5 134t-108.5 370zM515 860q-134 0 -209.5 -101t-75.5 -280q0 -180 76 -282.5t209 -102.5q132 0 208 102.5
t76 282.5q0 179 -75.5 280t-208.5 101z" />
    <glyph glyph-name="divide" unicode="&#xf7;" 
d="M68 418v119h892v-119h-892zM606 877v-184h-184v184h184zM606 262v-184h-184v184h184z" />
    <glyph glyph-name="oslash" unicode="&#xf8;" 
d="M799 479q0 117 -35 205l-442 -508q82 -82 193 -82q132 0 208 102.5t76 282.5zM850 784q68 -118 68 -305q0 -236 -108 -370t-295 -134q-164 0 -273 109l-94 -109l-76 68l109 125q-70 122 -70 311q0 235 108 367.5t296 132.5q165 0 274 -109l94 109l78 -68zM515 860
q-134 0 -209.5 -101t-75.5 -280q0 -118 37 -211l442 510q-82 82 -194 82z" />
    <glyph glyph-name="ugrave" unicode="&#xf9;" 
d="M322 1421h219l168 -299h-86zM885 954v-770q0 -98 20 -184h-118q-21 82 -21 184v33q-55 -117 -140.5 -179.5t-189.5 -62.5q-149 0 -228 93.5t-79 269.5v616h119v-616q0 -118 49 -181t139 -63q137 0 236 148q94 141 94 317v395h119z" />
    <glyph glyph-name="uacute" unicode="&#xfa;" 
d="M709 1421l-301 -299h-86l168 299h219zM885 954v-770q0 -98 20 -184h-118q-21 82 -21 184v33q-55 -117 -140.5 -179.5t-189.5 -62.5q-149 0 -228 93.5t-79 269.5v616h119v-616q0 -118 49 -181t139 -63q137 0 236 148q94 141 94 317v395h119z" />
    <glyph glyph-name="ucircumflex" unicode="&#xfb;" 
d="M215 1122l229 299h140l229 -299h-106l-193 160l-193 -160h-106zM885 954v-770q0 -98 20 -184h-118q-21 82 -21 184v33q-55 -117 -140.5 -179.5t-189.5 -62.5q-149 0 -228 93.5t-79 269.5v616h119v-616q0 -118 49 -181t139 -63q137 0 236 148q94 141 94 317v395h119z" />
    <glyph glyph-name="udieresis" unicode="&#xfc;" 
d="M616 1317h164v-154h-164v154zM248 1317h164v-154h-164v154zM885 954v-770q0 -98 20 -184h-118q-21 82 -21 184v33q-55 -117 -140.5 -179.5t-189.5 -62.5q-149 0 -228 93.5t-79 269.5v616h119v-616q0 -118 49 -181t139 -63q137 0 236 148q94 141 94 317v395h119z" />
    <glyph glyph-name="yacute" unicode="&#xfd;" 
d="M709 1421l-301 -299h-86l168 299h219zM102 954h129l332 -735l264 735h127l-411 -1142q-78 -213 -248 -213q-95 0 -159.5 67t-92.5 195l115 32q33 -175 137 -175q46 0 77.5 32t59.5 107l74 200z" />
    <glyph glyph-name="thorn" unicode="&#xfe;" 
d="M262 229q31 -60 99.5 -97.5t146.5 -37.5q137 0 214 101.5t77 281.5t-77 281.5t-214 101.5q-78 0 -146.5 -37.5t-99.5 -97.5v-496zM143 -401v1876h119v-588q115 92 246 92q192 0 301 -134t109 -368q0 -233 -109.5 -367.5t-300.5 -134.5q-132 0 -246 88v-464h-119z" />
    <glyph glyph-name="ydieresis" unicode="&#xff;" 
d="M616 1317h164v-154h-164v154zM248 1317h164v-154h-164v154zM102 954h129l332 -735l264 735h127l-411 -1142q-78 -213 -248 -213q-95 0 -159.5 67t-92.5 195l115 32q33 -175 137 -175q46 0 77.5 32t59.5 107l74 200z" />
    <glyph glyph-name="Cacute" unicode="&#x106;" 
 />
    <glyph glyph-name="cacute" unicode="&#x107;" 
 />
    <glyph glyph-name="Ccaron" unicode="&#x10c;" 
 />
    <glyph glyph-name="ccaron" unicode="&#x10d;" 
 />
    <glyph glyph-name="dcroat" unicode="&#x111;" 
 />
    <glyph glyph-name="Gbreve" unicode="&#x11e;" 
 />
    <glyph glyph-name="gbreve" unicode="&#x11f;" 
 />
    <glyph glyph-name="Idotaccent" unicode="&#x130;" 
 />
    <glyph glyph-name="dotlessi" unicode="&#x131;" 
 />
    <glyph glyph-name="Lslash" unicode="&#x141;" 
 />
    <glyph glyph-name="lslash" unicode="&#x142;" 
 />
    <glyph glyph-name="OE" unicode="&#x152;" 
d="M545 1364q-29 16 -82 16q-137 0 -195.5 -146.5t-58.5 -496.5t58.5 -496.5t195.5 -146.5q40 0 82 15v1255zM664 119h313v-119h-387q-57 -25 -127 -25q-192 0 -282.5 183.5t-90.5 578.5t90.5 578.5t282.5 183.5q74 0 127 -24h387v-119h-313v-541h215v-119h-215v-577z" />
    <glyph glyph-name="oe" unicode="&#x153;" 
d="M721 860q-147 0 -147 -229v-66h294v66q0 229 -147 229zM453 477q0 197 -34.5 290t-106.5 93q-73 0 -107.5 -93t-34.5 -290q0 -383 139 -383q144 0 144 383zM312 979q129 0 203 -142q26 61 85 101.5t121 40.5q266 0 266 -406v-127h-413v-156q0 -88 40 -142t107 -54
q89 0 184 102l84 -86q-68 -71 -131.5 -103t-136.5 -32q-155 0 -206 135q-79 -135 -206 -135t-192.5 127.5t-65.5 374.5q0 502 261 502z" />
    <glyph glyph-name="Scedilla" unicode="&#x15e;" 
 />
    <glyph glyph-name="scedilla" unicode="&#x15f;" 
 />
    <glyph glyph-name="Scaron" unicode="&#x160;" 
d="M215 1927h106l193 -160l193 160h106l-229 -299h-140zM254 1159q0 -73 40.5 -130t137.5 -120l276 -178q120 -77 177 -171t57 -214q0 -168 -116 -269.5t-306 -101.5q-123 0 -227.5 55t-173.5 156l96 70q112 -162 305 -162q137 0 220 69.5t83 182.5q0 173 -182 289l-283 180
q-223 142 -223 336q0 153 104.5 250.5t266.5 97.5q120 0 213.5 -48.5t175.5 -152.5l-97 -71q-62 80 -132 116.5t-160 36.5q-109 0 -180.5 -64t-71.5 -157z" />
    <glyph glyph-name="scaron" unicode="&#x161;" 
d="M215 1415h106l193 -160l193 160h106l-229 -299h-140zM379 483q-186 66 -186 246q0 107 87 178.5t226 71.5q196 0 327 -131l-70 -97q-62 58 -122 83.5t-135 25.5q-89 0 -141.5 -36t-52.5 -95q0 -96 120 -139l256 -93q182 -67 182 -253q0 -119 -93.5 -194t-243.5 -75
q-108 0 -202 41.5t-158 118.5l77 92q112 -133 283 -133q97 0 157.5 41t60.5 104q0 110 -112 150z" />
    <glyph glyph-name="Ydieresis" unicode="&#x178;" 
d="M616 1829h164v-154h-164v154zM248 1829h164v-154h-164v154zM515 776l307 699h129l-377 -855v-620h-119v620l-377 855h129z" />
    <glyph glyph-name="Zcaron" unicode="&#x17d;" 
d="M256 1927h106l193 -160l193 160h106l-229 -299h-140zM258 119h686v-119h-821v119l665 1237h-645v119h781v-119z" />
    <glyph glyph-name="zcaron" unicode="&#x17e;" 
d="M215 1415h106l193 -160l193 160h106l-229 -299h-140zM180 954h684v-119l-555 -716h584v-119h-733v119l555 716h-535v119z" />
    <glyph glyph-name="florin" unicode="&#x192;" 
d="M190 735v119h289l31 330q13 151 89.5 233t203.5 82q124 0 215 -65l-27 -124q-94 70 -188 70q-75 0 -120 -50.5t-54 -145.5l-31 -330h279v-119h-289l-70 -764q-13 -151 -89.5 -233t-203.5 -82q-123 0 -215 66l27 122q94 -69 188 -69q155 0 174 196l70 764h-279z" />
    <glyph glyph-name="circumflex" unicode="&#x2c6;" 
d="M215 1122l229 299h140l229 -299h-106l-193 160l-193 -160h-106z" />
    <glyph glyph-name="caron" unicode="&#x2c7;" 
 />
    <glyph glyph-name="breve" unicode="&#x2d8;" 
 />
    <glyph glyph-name="dotaccent" unicode="&#x2d9;" 
 />
    <glyph glyph-name="ring" unicode="&#x2da;" 
 />
    <glyph glyph-name="ogonek" unicode="&#x2db;" 
 />
    <glyph glyph-name="tilde" unicode="&#x2dc;" 
d="M227 1138l-63 97q49 49 98 69.5t117 20.5q59 0 119 -25l59 -24q51 -23 92 -23q84 0 152 68l63 -97q-49 -49 -98 -69.5t-117 -20.5q-59 0 -119 25l-59 24q-51 23 -92 23q-84 0 -152 -68z" />
    <glyph glyph-name="hungarumlaut" unicode="&#x2dd;" 
 />
    <glyph glyph-name="pi" unicode="&#x3c0;" 
 />
    <glyph glyph-name="endash" unicode="&#x2013;" 
d="M94 537h840v-119h-840v119z" />
    <glyph glyph-name="emdash" unicode="&#x2014;" 
d="M0 537h1028v-119h-1028v119z" />
    <glyph glyph-name="quoteleft" unicode="&#x2018;" 
d="M626 1004h-225v225q0 61 27 117.5t94 128.5l61 -47q-100 -93 -100 -199h143v-225z" />
    <glyph glyph-name="quoteright" unicode="&#x2019;" 
d="M401 1475h225v-225q0 -62 -27.5 -119t-93.5 -127l-61 47q100 93 100 199h-143v225z" />
    <glyph glyph-name="quotesinglbase" unicode="&#x201a;" 
d="M401 225h225v-225q0 -61 -27 -117.5t-94 -128.5l-61 47q100 93 100 199h-143v225z" />
    <glyph glyph-name="quotedblleft" unicode="&#x201c;" 
d="M444 1004h-225v225q0 61 27 117.5t94 128.5l61 -47q-100 -93 -100 -199h143v-225zM809 1004h-225v225q0 61 27 117.5t94 128.5l61 -47q-100 -93 -100 -199h143v-225z" />
    <glyph glyph-name="quotedblright" unicode="&#x201d;" 
d="M584 1475h225v-225q0 -62 -27.5 -119t-93.5 -127l-61 47q100 93 100 199h-143v225zM219 1475h225v-225q0 -62 -27.5 -119t-93.5 -127l-61 47q100 93 100 199h-143v225z" />
    <glyph glyph-name="quotedblbase" unicode="&#x201e;" 
d="M584 225h225v-225q0 -61 -27 -117.5t-94 -128.5l-61 47q100 93 100 199h-143v225zM219 225h225v-225q0 -61 -27 -117.5t-94 -128.5l-61 47q100 93 100 199h-143v225z" />
    <glyph glyph-name="dagger" unicode="&#x2020;" 
d="M138 971v119h317v385h119v-385h317v-119h-317v-971h-119v971h-317z" />
    <glyph glyph-name="daggerdbl" unicode="&#x2021;" 
d="M138 971v119h317v385h119v-385h317v-119h-317v-467h317v-119h-317v-385h-119v385h-317v119h317v467h-317z" />
    <glyph glyph-name="bullet" unicode="&#x2022;" 
d="M514 1024q118 0 202 -84.5t84 -202.5t-84 -202t-202 -84t-202.5 84t-84.5 202q0 119 84.5 203t202.5 84z" />
    <glyph glyph-name="ellipsis" unicode="&#x2026;" 
d="M743 0v225h225v-225h-225zM59 0v225h225v-225h-225zM401 0v225h225v-225h-225z" />
    <glyph glyph-name="perthousand" unicode="&#x2030;" 
d="M475 508q75 0 119.5 -72t44.5 -194q0 -123 -44.5 -195t-119.5 -72t-119.5 72t-44.5 195q0 122 44.5 194t119.5 72zM475 406q-62 0 -62 -164q0 -165 62 -165t62 165q0 164 -62 164zM844 508q74 0 118.5 -72t44.5 -194q0 -123 -44 -195t-119 -72t-119.5 72t-44.5 195
q0 122 44.5 194t119.5 72zM844 406q-62 0 -62 -164q0 -165 62 -165q61 0 61 165q0 164 -61 164zM40 10l534 1354q-56 -29 -132 -29q-53 0 -108 19q14 -58 14 -121q0 -122 -44.5 -194t-119.5 -72t-119.5 72t-44.5 194t44.5 194t119.5 72q42 0 76 -24q38 -26 88.5 -42
t93.5 -16q45 0 95.5 22.5t89.5 59.5l94 -38l-585 -1486zM184 1397q-62 0 -62 -164t62 -164t62 164t-62 164z" />
    <glyph glyph-name="guilsinglleft" unicode="&#x2039;" 
d="M766 813l-336 -336l336 -336l-84 -84l-420 420l420 420z" />
    <glyph glyph-name="guilsinglright" unicode="&#x203a;" 
d="M264 813l84 84l420 -420l-420 -420l-84 84l336 336z" />
    <glyph glyph-name="franc" unicode="&#x20a3;" 
 />
    <glyph glyph-name="Euro" unicode="&#x20ac;" 
d="M911 1171q-84 209 -264 209q-290 0 -336 -458h541l-25 -119h-524v-65v-66h494l-25 -119h-461q48 -459 336 -459q87 0 156.5 58t105.5 161v-223q-48 -55 -116.5 -85t-145.5 -30q-401 0 -455 578h-125l27 119h90v66v65h-117l27 119h98q28 281 144.5 429t310.5 148
q94 0 174.5 -41.5t128.5 -114.5z" />
    <glyph glyph-name="trademark" unicode="&#x2122;" 
d="M662 1475l117 -379l114 379h113v-763h-76v628l-119 -394h-67l-119 387v-621h-76v763h113zM285 712h-76v687h-186v76h452v-76h-190v-687z" />
    <glyph glyph-name="Omega" unicode="&#x2126;" 
 />
    <glyph glyph-name="partialdiff" unicode="&#x2202;" 
 />
    <glyph glyph-name="Delta" unicode="&#x2206;" 
 />
    <glyph glyph-name="product" unicode="&#x220f;" 
 />
    <glyph glyph-name="summation" unicode="&#x2211;" 
 />
    <glyph glyph-name="minus" unicode="&#x2212;" 
 />
    <glyph glyph-name="fraction" unicode="&#x2215;" 
 />
    <glyph glyph-name="infinity" unicode="&#x221e;" 
 />
    <glyph glyph-name="integral" unicode="&#x222b;" 
 />
    <glyph glyph-name="approxequal" unicode="&#x2248;" 
 />
    <glyph glyph-name="notequal" unicode="&#x2260;" 
 />
    <glyph glyph-name="lessequal" unicode="&#x2264;" 
 />
    <glyph glyph-name="greaterequal" unicode="&#x2265;" 
 />
    <glyph glyph-name="lozenge" unicode="&#x25ca;" 
 />
    <glyph glyph-name="apple" unicode="&#xf000;" 
 />
    <glyph glyph-name="fi" unicode="&#xf001;" 
 />
    <glyph glyph-name="fl" unicode="&#xf002;" 
 />
    <glyph glyph-name="glyph165" 
 />
    <glyph glyph-name="glyph172" 
 />
    <glyph glyph-name="glyph259" 
 />
  </font>
</defs>
</svg>
